<svg id="图层_1" data-name="图层 1" fill="white" xmlns="http://www.w3.org/2000/svg" viewBox="0 0 193.61 74.36"><defs><style>.cls-1,.cls-2{fill:#00a0e9;}.cls-1,.cls-4{stroke:#00a0e9;}.cls-1,.cls-4,.cls-5,.cls-6,.cls-7,.cls-8{stroke-miterlimit:10;}.cls-1,.cls-6,.cls-7{stroke-width:3px;}.cls-3,.cls-5,.cls-7{fill:#13ae67;}.cls-4,.cls-8{fill:none;stroke-width:8px;}.cls-5,.cls-7{stroke:#13ae67;}.cls-6{fill:#dae000;}.cls-6,.cls-8{stroke:#dae000;}</style></defs><path class="cls-1" d="M75.92,43.11c-1,1-.83,2.52-.83,4.24,0,0,0,.43-1.63,9C72.4,62.06,62,72.76,49.11,72.48c-13.78-.29-25.82-13-25.82-27.48,0-15.18,11.56-27.48,25.82-27.48,10.38,0,17.62,7.36,18.71,8.55.71.77,3.74,1.29,5.41.05.44-.33,1.57-1.38,1.37-2.39a1.45,1.45,0,0,0-.2-.48C74,22.62,63.16,10,49.11,10.13,33.87,10.33,16.73,25.61,16.74,45c0,18.57,15.74,34.47,32.37,34.87,14.5.35,24.29-11.23,24.93-12,4.11-5,5.21-10,7.41-20,.38-1.71.78-4-.46-5.1S77.16,41.82,75.92,43.11Z" transform="translate(-15.24 -8.63)"/><path class="cls-2" d="M78.84,41.12q-11.84.23-23.68.17c-3.22,0-3.22,5,0,5q11.84,0,23.68-.17c3.21-.07,3.22-5.07,0-5Z" transform="translate(-15.24 -8.63)"/><path class="cls-3" d="M53.05,49.35q12.41-.15,24.74-1.43c2.6-.27,5.13-2.1,5-5-.11-2.47-2.21-5.29-5-5q-12.33,1.29-24.74,1.43a5,5,0,0,0,0,10Z" transform="translate(-15.24 -8.63)"/><ellipse class="cls-4" cx="95.17" cy="49.76" rx="18.64" ry="19.99"/><path class="cls-5" d="M173.6,19.19H121A2.18,2.18,0,0,1,119,16.81,2.14,2.14,0,0,1,121,15.07H173.6a2.06,2.06,0,1,1,0,4.12Z" transform="translate(-15.24 -8.63)"/><path class="cls-6" d="M146.25,18.4h4V79.88a2.09,2.09,0,0,1-2.13,1.61,2.06,2.06,0,0,1-1.84-1.61V18.4Z" transform="translate(-15.24 -8.63)"/><path class="cls-7" d="M174.44,19.19H121.82a2.17,2.17,0,0,1-1.94-2.38,2.13,2.13,0,0,1,1.94-1.74h52.62a2.06,2.06,0,1,1,0,4.12Z" transform="translate(-15.24 -8.63)"/><ellipse class="cls-8" cx="170.97" cy="48.96" rx="18.64" ry="19.99"/></svg>